<svg width="145" height="93" viewBox="0 0 145 93" fill="none" xmlns="http://www.w3.org/2000/svg">
<g clip-path="url(#clip0_1529_1606)">
<path opacity="0.58" d="M63.4452 34.3332L61.3804 32.2632L59.3155 34.3332L61.3804 36.4033L63.4452 34.3332Z" fill="white"/>
<path opacity="0.58" d="M51.7752 47.2285L50.3574 45.8071L48.9397 47.2285L50.3574 48.6498L51.7752 47.2285Z" fill="white"/>
<path opacity="0.24" d="M81.932 17.3545L80.7178 16.1372L79.5036 17.3545L80.7178 18.5717L81.932 17.3545Z" fill="white"/>
<path opacity="0.88" d="M92.492 39.621L91.2778 38.4038L90.0636 39.6211L91.2778 40.8383L92.492 39.621Z" fill="white"/>
<path opacity="0.24" d="M23.4095 6.25045L22.1953 5.0332L20.9811 6.25045L22.1953 7.46769L23.4095 6.25045Z" fill="white"/>
<path d="M145.001 36.2811L142.049 33.3218L139.097 36.2811L142.049 39.2404L145.001 36.2811Z" fill="white"/>
<path opacity="0.68" d="M72.1621 61.7664L69.9082 59.5068L67.6543 61.7664L69.9082 64.0259L72.1621 61.7664Z" fill="white"/>
<path opacity="0.68" d="M4.5068 17.9563L2.25293 15.6968L-0.000945374 17.9563L2.25293 20.2159L4.5068 17.9563Z" fill="white"/>
<path opacity="0.69" d="M57.2442 88.2406L52.4893 83.4736L47.7343 88.2406L52.4893 93.0075L57.2442 88.2406Z" fill="white"/>
<path opacity="0.54" d="M131.042 19.5043L129.304 17.7622L127.567 19.5042L129.304 21.2463L131.042 19.5043Z" fill="white"/>
<path opacity="0.88" d="M38.7281 21.6974L38.1465 21.1143L37.5648 21.6974L38.1465 22.2805L38.7281 21.6974Z" fill="white"/>
<path opacity="0.88" d="M117.519 0.585552L116.937 0.00244141L116.355 0.585552L116.937 1.16866L117.519 0.585552Z" fill="white"/>
<ellipse cx="71.4643" cy="46.5001" rx="30.0357" ry="29.9667" transform="rotate(-180 71.4643 46.5001)" fill="url(#paint0_radial_1529_1606)" fill-opacity="0.5"/>
<g clip-path="url(#clip1_1529_1606)">
<path d="M18.7855 85V31.75H10V14H36.3566V85H18.7855Z" fill="white"/>
<path d="M100.956 84.9999V58.897H126.796L130 62.1337V68.6073L126.796 71.844L130 75.0808V81.5543L126.796 84.9999H100.956ZM123.592 68.7117V65.4749H107.364V68.7117H123.592ZM123.592 78.5264V75.2896H107.364V78.5264H123.592Z" fill="white"/>
<path d="M62.7132 67.25V31.75H106.641V54.7206H124.212V22.875L115.426 14H53.9276L45.1421 22.875V76.125L53.9276 85H96.8217V67.25H62.7132Z" fill="white"/>
</g>
</g>
<defs>
<radialGradient id="paint0_radial_1529_1606" cx="0" cy="0" r="1" gradientUnits="userSpaceOnUse" gradientTransform="translate(71.4643 46.5001) rotate(90) scale(29.9667 30.0357)">
<stop stop-color="white" stop-opacity="0.67"/>
<stop offset="1" stop-color="white" stop-opacity="0"/>
</radialGradient>
<clipPath id="clip0_1529_1606">
<rect width="145" height="93" fill="white"/>
</clipPath>
<clipPath id="clip1_1529_1606">
<rect width="120" height="71" fill="white" transform="translate(10 14)"/>
</clipPath>
</defs>
</svg>