<svg width="186" height="35" viewBox="0 0 186 35" fill="none" xmlns="http://www.w3.org/2000/svg">
<path d="M52.2872 25.4437C53.5203 25.4437 54.6224 25.2407 55.5931 24.8347C56.5798 24.4286 57.4117 23.8947 58.0901 23.2331C58.768 22.5563 59.2538 21.8195 59.5465 21.0224L56.726 19.7367C56.3868 20.5788 55.8321 21.2781 55.0618 21.8345C54.3062 22.3759 53.3815 22.6466 52.2872 22.6466C51.2085 22.6466 50.2608 22.3984 49.4439 21.9022C48.627 21.4059 47.9875 20.7217 47.5251 19.8494C47.0627 18.9621 46.8315 17.932 46.8315 16.759C46.8315 15.586 47.0627 14.5634 47.5251 13.6912C47.9875 12.8039 48.627 12.1197 49.4439 11.6384C50.2608 11.1422 51.2085 10.8941 52.2872 10.8941C53.3815 10.8941 54.3062 11.1723 55.0618 11.7287C55.8321 12.2701 56.3868 12.9618 56.726 13.804L59.5465 12.5182C59.2538 11.7212 58.768 10.9918 58.0901 10.3301C57.4117 9.65341 56.5798 9.11202 55.5931 8.70598C54.6224 8.29994 53.5203 8.09692 52.2872 8.09692C51.0545 8.09692 49.9138 8.315 48.8659 8.7511C47.8179 9.17214 46.9086 9.7737 46.138 10.5557C45.3674 11.3227 44.7663 12.24 44.3348 13.3077C43.9032 14.3604 43.6875 15.5109 43.6875 16.759C43.6875 18.0072 43.9032 19.1652 44.3348 20.2329C44.7663 21.2856 45.3674 22.203 46.138 22.9849C46.9086 23.7669 47.8179 24.376 48.8659 24.8121C49.9138 25.2332 51.0545 25.4437 52.2872 25.4437Z" fill="white"/>
<path d="M61.8442 25.1723H64.873V18.3373C64.873 17.4049 65.135 16.6831 65.6589 16.1718C66.198 15.6455 66.8915 15.3823 67.7395 15.3823H68.826V12.7656H68.086C67.3158 12.7656 66.6374 12.9009 66.0519 13.1716C65.4663 13.4423 65.0113 13.9311 64.6878 14.6379V12.9009H61.8442V25.1723Z" fill="white"/>
<path d="M72.0167 30.1572C73.2039 30.1572 74.1902 29.8264 74.9761 29.1647C75.7776 28.518 76.4169 27.6007 76.8949 26.4127L82.3738 12.9006H79.0909L75.8544 21.3597L72.5949 12.9006H69.3354L74.3055 25.172L74.0284 25.8262C73.7816 26.3374 73.4966 26.751 73.1726 27.0668C72.8647 27.3826 72.3637 27.5406 71.6702 27.5406C71.4234 27.5406 71.1614 27.518 70.8843 27.4729C70.6067 27.4428 70.3604 27.3977 70.1443 27.3375V29.8188C70.4063 29.9392 70.6991 30.0219 71.0231 30.067C71.3466 30.1271 71.678 30.1572 72.0167 30.1572Z" fill="white"/>
<path d="M84.0371 29.6837H87.0654V23.9992C87.5277 24.4654 88.0903 24.8263 88.753 25.0819C89.4158 25.3225 90.1323 25.4429 90.903 25.4429C92.1205 25.4429 93.207 25.1647 94.1625 24.6082C95.118 24.0368 95.8736 23.2698 96.4283 22.3073C96.9831 21.3299 97.2607 20.2396 97.2607 19.0365C97.2607 17.8334 96.9831 16.7507 96.4283 15.7882C95.8736 14.8107 95.118 14.0438 94.1625 13.4873C93.207 12.9159 92.1283 12.6301 90.926 12.6301C90.0629 12.6301 89.2848 12.7805 88.5913 13.0813C87.8977 13.3821 87.3274 13.8031 86.8806 14.3445V12.9008H84.0371V29.6837ZM90.5565 22.7359C89.8938 22.7359 89.2926 22.578 88.753 22.2622C88.2291 21.9464 87.8132 21.5103 87.5048 20.9539C87.212 20.3975 87.0654 19.7583 87.0654 19.0365C87.0654 18.3147 87.212 17.6755 87.5048 17.1191C87.8132 16.5627 88.2291 16.1266 88.753 15.8108C89.2926 15.495 89.8938 15.3371 90.5565 15.3371C91.2501 15.3371 91.8585 15.5025 92.3825 15.8333C92.9221 16.1491 93.3458 16.5852 93.6542 17.1417C93.9621 17.6981 94.1166 18.3297 94.1166 19.0365C94.1166 19.7433 93.9621 20.3824 93.6542 20.9539C93.3458 21.5103 92.9221 21.9464 92.3825 22.2622C91.8585 22.578 91.2501 22.7359 90.5565 22.7359Z" fill="white"/>
<path d="M105.077 25.3079C105.585 25.3079 106.086 25.2703 106.58 25.1951V22.6461C106.287 22.6912 106.017 22.7138 105.77 22.7138C105.031 22.7138 104.491 22.5484 104.152 22.2175C103.813 21.8867 103.644 21.413 103.644 20.7964V15.5405H106.533V12.9012H103.644V10.1041H100.615V11.0516C100.615 11.6531 100.446 12.1117 100.107 12.4275C99.7674 12.7433 99.2894 12.9012 98.6731 12.9012H98.4419V15.5405H100.615V20.9543C100.615 22.3228 101 23.3905 101.771 24.1575C102.557 24.9245 103.659 25.3079 105.077 25.3079Z" fill="white"/>
<path d="M114.93 25.4429C116.148 25.4429 117.258 25.1722 118.259 24.6308C119.261 24.0743 120.063 23.3149 120.664 22.3525C121.264 21.375 121.565 20.2696 121.565 19.0365C121.565 17.8033 121.264 16.7056 120.664 15.7431C120.078 14.7806 119.284 14.0212 118.283 13.4648C117.281 12.9084 116.163 12.6301 114.93 12.6301C113.682 12.6301 112.557 12.9084 111.555 13.4648C110.553 14.0212 109.752 14.7806 109.151 15.7431C108.565 16.7056 108.272 17.8033 108.272 19.0365C108.272 20.2696 108.565 21.3675 109.151 22.3299C109.752 23.2924 110.553 24.0518 111.555 24.6082C112.572 25.1647 113.697 25.4429 114.93 25.4429ZM114.93 22.7359C114.252 22.7359 113.643 22.578 113.104 22.2622C112.58 21.9464 112.164 21.5103 111.855 20.9539C111.563 20.3824 111.416 19.7433 111.416 19.0365C111.416 18.3297 111.563 17.6981 111.855 17.1417C112.164 16.5852 112.58 16.1491 113.104 15.8333C113.643 15.5025 114.252 15.3371 114.93 15.3371C115.609 15.3371 116.202 15.5025 116.71 15.8333C117.234 16.1491 117.643 16.5852 117.935 17.1417C118.244 17.6981 118.398 18.3297 118.398 19.0365C118.398 19.7433 118.244 20.3824 117.935 20.9539C117.643 21.5103 117.234 21.9464 116.71 22.2622C116.202 22.578 115.609 22.7359 114.93 22.7359Z" fill="white"/>
<path d="M123.861 25.1722H126.89V17.9763C126.89 17.1792 127.121 16.5401 127.583 16.0589C128.061 15.5777 128.677 15.3371 129.433 15.3371C130.188 15.3371 130.796 15.5777 131.259 16.0589C131.737 16.5251 131.976 17.1642 131.976 17.9763V25.1722H135.004V17.277C135.004 16.3597 134.803 15.5551 134.403 14.8633C134.002 14.1565 133.439 13.6077 132.715 13.2166C132.006 12.8256 131.19 12.6301 130.264 12.6301C129.479 12.6301 128.77 12.7805 128.138 13.0813C127.521 13.3821 127.044 13.8257 126.704 14.4122V12.9008H123.861V25.1722Z" fill="white"/>
<path d="M141.379 25.4429C143.013 25.4429 144.323 24.9165 145.309 23.8638V25.1722H148.176V17.0063C148.176 16.1491 147.952 15.3897 147.506 14.728C147.058 14.0663 146.442 13.555 145.656 13.1941C144.885 12.8181 143.984 12.6301 142.951 12.6301C141.688 12.6301 140.562 12.9234 139.576 13.5099C138.59 14.0964 137.911 14.8708 137.541 15.8333L140.016 17.0063C140.247 16.4499 140.609 16.0063 141.102 15.6754C141.595 15.3295 142.173 15.1566 142.836 15.1566C143.529 15.1566 144.084 15.3371 144.5 15.698C144.932 16.0438 145.147 16.48 145.147 17.0063V17.4124L141.403 17.9989C139.923 18.2394 138.829 18.6982 138.12 19.3749C137.41 20.0516 137.056 20.9013 137.056 21.9239C137.056 23.0066 137.449 23.8638 138.235 24.4954C139.021 25.1271 140.069 25.4429 141.379 25.4429ZM140.2 21.8111C140.2 20.9539 140.794 20.4125 141.98 20.1869L145.147 19.6681V20.1644C145.147 21.0065 144.847 21.7208 144.246 22.3073C143.66 22.8938 142.89 23.1871 141.934 23.1871C141.426 23.1871 141.009 23.0668 140.686 22.8262C140.362 22.5705 140.2 22.2322 140.2 21.8111Z" fill="white"/>
<path d="M155.46 25.4427C156.246 25.4427 156.939 25.2998 157.54 25.0141C158.157 24.7133 158.642 24.2772 158.997 23.7057V25.172H161.863V12.9006H158.835V20.0965C158.835 20.9086 158.596 21.5553 158.118 22.0365C157.64 22.5027 157.031 22.7358 156.292 22.7358C155.537 22.7358 154.92 22.5027 154.443 22.0365C153.98 21.5703 153.749 20.9462 153.749 20.1642V12.9006H150.72V20.4123C150.72 21.9162 151.137 23.1343 151.969 24.0667C152.816 24.984 153.98 25.4427 155.46 25.4427Z" fill="white"/>
<path d="M170.413 25.3079C170.921 25.3079 171.422 25.2703 171.915 25.1951V22.6461C171.622 22.6912 171.352 22.7138 171.106 22.7138C170.366 22.7138 169.827 22.5484 169.488 22.2175C169.149 21.8867 168.979 21.413 168.979 20.7964V15.5405H171.869V12.9012H168.979V10.1041H165.951V11.0516C165.951 11.6531 165.781 12.1117 165.442 12.4275C165.103 12.7433 164.625 12.9012 164.009 12.9012H163.777V15.5405H165.951V20.9543C165.951 22.3228 166.336 23.3905 167.107 24.1575C167.893 24.9245 168.995 25.3079 170.413 25.3079Z" fill="white"/>
<path d="M180.08 25.4429C181.359 25.4429 182.477 25.1647 183.432 24.6082C184.403 24.0368 185.082 23.3149 185.467 22.4427L183.016 21.2697C182.739 21.7359 182.354 22.1194 181.86 22.4201C181.383 22.7059 180.797 22.8487 180.103 22.8487C179.194 22.8487 178.431 22.578 177.815 22.0366C177.198 21.4953 176.844 20.7734 176.752 19.8711H185.813C185.875 19.7057 185.914 19.5177 185.929 19.3072C185.96 19.0816 185.976 18.8561 185.976 18.6305C185.976 17.5327 185.737 16.5326 185.259 15.6303C184.781 14.728 184.088 14.0061 183.178 13.4648C182.269 12.9084 181.159 12.6301 179.849 12.6301C178.678 12.6301 177.615 12.9084 176.659 13.4648C175.719 14.0212 174.971 14.7806 174.416 15.7431C173.877 16.6905 173.607 17.7808 173.607 19.014C173.607 20.202 173.877 21.2847 174.416 22.2622C174.956 23.2397 175.711 24.0142 176.682 24.5857C177.653 25.1571 178.786 25.4429 180.08 25.4429ZM179.849 15.0664C180.651 15.0664 181.314 15.307 181.837 15.7882C182.377 16.2544 182.677 16.8635 182.739 17.6154H176.821C176.99 16.8033 177.345 16.1792 177.884 15.7431C178.439 15.2919 179.094 15.0664 179.849 15.0664Z" fill="white"/>
<path d="M17.0425 2.50906C8.10206 2.50906 0.854431 9.68017 0.854431 18.5262C0.854431 27.3722 8.10206 34.5433 17.0425 34.5433C25.9828 34.5433 33.2305 27.3722 33.2305 18.5262C33.2305 9.68017 25.9828 2.50906 17.0425 2.50906Z" fill="#163EB2"/>
<path d="M14.3775 17.8965C13.768 18.4238 13.203 19.0588 12.7835 19.8146C11.0545 22.9308 12.3846 26.9339 12.3846 26.9339C12.3846 26.9339 16.5122 25.8955 18.2412 22.7794C18.6607 22.0235 18.8987 21.2109 19.0213 20.4191L14.3775 17.8965Z" fill="#C20404"/>
<path d="M20.3458 19.2903L22.6767 22.0159L24.5102 18.016L23.4272 15.8738C26.7399 11.7175 27.9257 8.24682 28.1833 5.61733C28.5518 2.01348 27.1704 0.000268876 27.1704 0.000268876C27.1704 0.000268876 24.7121 -0.072325 21.8338 2.16811C19.7328 3.79626 17.4098 6.64917 15.6408 11.6441L13.2328 11.8898L10.8062 15.5676L14.3815 16.0504L20.3458 19.2903ZM23.6851 6.28151C24.8223 6.89927 25.2403 8.31834 24.6164 9.44281C23.9925 10.5672 22.558 10.98 21.4208 10.3622C20.2836 9.74443 19.8654 8.32536 20.4894 7.20089C21.1133 6.07647 22.5478 5.66374 23.6851 6.28151Z" fill="white"/>
<path d="M27.1703 0C27.1703 0 28.8208 2.3218 28.002 6.87143L24.8526 4.19149L20.9473 2.94504C23.7188 0 27.1703 0 27.1703 0Z" fill="#163EB2"/>
</svg>