<svg width="127" height="86" viewBox="0 0 127 86" fill="none" xmlns="http://www.w3.org/2000/svg">
<path opacity="0.58" d="M70.9298 55.4042L72.7256 57.207L74.5214 55.4042L72.7256 53.6013L70.9298 55.4042Z" fill="#F8CCFF"/>
<path opacity="0.58" d="M81.0795 44.1733L82.3125 45.4111L83.5455 44.1733L82.3125 42.9354L81.0795 44.1733Z" fill="#F8CCFF"/>
<path opacity="0.24" d="M54.8512 70.1913L55.9072 71.2515L56.9632 70.1913L55.9072 69.1312L54.8512 70.1913Z" fill="#F8CCFF"/>
<path opacity="0.88" d="M45.6677 50.7988L46.7236 51.8589L47.7796 50.7988L46.7236 49.7386L45.6677 50.7988Z" fill="#F8CCFF"/>
<path opacity="0.24" d="M105.749 79.8617L106.805 80.9219L107.861 79.8617L106.805 78.8016L105.749 79.8617Z" fill="#F8CCFF"/>
<path d="M0.000132727 53.7074L2.56738 56.2847L5.13462 53.7074L2.56737 51.13L0.000132727 53.7074Z" fill="#F8CCFF"/>
<path opacity="0.68" d="M63.3489 31.5116L65.3091 33.4795L67.2693 31.5116L65.3091 29.5437L63.3489 31.5116Z" fill="#F8CCFF"/>
<path opacity="0.68" d="M122.188 69.6669L124.148 71.6348L126.109 69.6669L124.148 67.699L122.188 69.6669Z" fill="#F8CCFF"/>
<path opacity="0.69" d="M86.8382 6.15159L90.9736 10.3032L95.109 6.15159L90.9736 1.99996L86.8382 6.15159Z" fill="#F8CCFF"/>
<path opacity="0.54" d="M12.1401 68.3188L13.6514 69.8359L15.1626 68.3188L13.6514 66.8016L12.1401 68.3188Z" fill="#F8CCFF"/>
<path opacity="0.88" d="M92.4258 66.4087L92.9316 66.9165L93.4375 66.4087L92.9316 65.9008L92.4258 66.4087Z" fill="#F8CCFF"/>
<path opacity="0.88" d="M23.9014 84.7954L24.4072 85.3032L24.9131 84.7954L24.4072 84.2875L23.9014 84.7954Z" fill="#F8CCFF"/>
<g filter="url(#filter0_b_1529_1679)">
<circle cx="63.5" cy="40.5" r="40.5" fill="url(#paint0_radial_1529_1679)" fill-opacity="0.3"/>
<circle cx="63.5" cy="40.5" r="39" stroke="url(#paint1_linear_1529_1679)" stroke-width="3"/>
</g>
<path d="M63.3239 19C55.9771 19 50 24.9813 50 32.3333C50 36 51.479 39.424 54.1624 41.976C54.3889 42.1947 54.6421 42.3867 54.8979 42.5787L55.1724 42.7867C55.6494 43.1627 56.1557 43.472 56.662 43.776V63L63.268 57.9307L69.9859 63V43.776C70.4922 43.472 71.0012 43.16 71.4782 42.784L71.7527 42.5787C72.0085 42.3867 72.259 42.1947 72.4882 41.976C75.1689 39.424 76.6479 36 76.6479 32.3333C76.6479 24.9813 70.6708 19 63.3239 19ZM67.3211 57.648L63.2547 54.5787L59.3268 57.5947V46.328C60.6112 46.7733 61.9542 47 63.3239 47C64.6936 47 66.0367 46.7733 67.3211 46.328V57.648ZM70.6494 40.0453C70.4976 40.192 70.327 40.3147 70.1565 40.4373L69.8287 40.688C65.9781 43.7147 60.6671 43.712 56.8219 40.6907L56.4914 40.4373C56.3209 40.312 56.1503 40.1893 55.9984 40.0453C53.848 38 52.6648 35.264 52.6648 32.3333C52.6648 26.4507 57.4454 21.6667 63.3239 21.6667C69.2025 21.6667 73.9831 26.4507 73.9831 32.3333C73.9831 35.264 72.7999 38 70.6494 40.0453Z" fill="white"/>
<path d="M68.5679 30.4812C68.5115 30.3078 68.3616 30.1814 68.1812 30.1552L65.1216 29.7107L63.7532 26.9379C63.6725 26.7744 63.506 26.6709 63.3237 26.6709C63.1414 26.6709 62.9749 26.7744 62.8942 26.9379L61.526 29.7106L58.4662 30.1552C58.2858 30.1814 58.1359 30.3078 58.0796 30.4811C58.0233 30.6545 58.0702 30.8449 58.2008 30.9721L60.4148 33.1301L59.892 36.1777C59.8612 36.3574 59.935 36.539 60.0825 36.6461C60.1659 36.7068 60.2648 36.7376 60.3641 36.7376C60.4403 36.7376 60.5168 36.7195 60.5869 36.6826L63.3237 35.2439L66.0605 36.6826C66.131 36.7197 66.2082 36.7373 66.2847 36.7376C66.5489 36.7372 66.7629 36.523 66.7629 36.2587C66.7629 36.2219 66.7588 36.186 66.7509 36.1516L66.2326 33.1301L68.4466 30.9721C68.5772 30.8449 68.6242 30.6545 68.5679 30.4812Z" fill="white"/>
<defs>
<filter id="filter0_b_1529_1679" x="21" y="-2" width="85" height="85" filterUnits="userSpaceOnUse" color-interpolation-filters="sRGB">
<feFlood flood-opacity="0" result="BackgroundImageFix"/>
<feGaussianBlur in="BackgroundImageFix" stdDeviation="1"/>
<feComposite in2="SourceAlpha" operator="in" result="effect1_backgroundBlur_1529_1679"/>
<feBlend mode="normal" in="SourceGraphic" in2="effect1_backgroundBlur_1529_1679" result="shape"/>
</filter>
<radialGradient id="paint0_radial_1529_1679" cx="0" cy="0" r="1" gradientUnits="userSpaceOnUse" gradientTransform="translate(63.5 40.5) rotate(90) scale(40.5)">
<stop stop-color="white" stop-opacity="0.7"/>
<stop offset="1" stop-color="#40005F"/>
</radialGradient>
<linearGradient id="paint1_linear_1529_1679" x1="63.5" y1="0" x2="63.5" y2="81" gradientUnits="userSpaceOnUse">
<stop stop-color="#335DD8" stop-opacity="0.7"/>
<stop offset="0.536458" stop-color="#D36BF4"/>
<stop offset="1" stop-color="#64D7E6" stop-opacity="0.67"/>
</linearGradient>
</defs>
</svg>