<svg width="153" height="64" viewBox="0 0 153 64" fill="none" xmlns="http://www.w3.org/2000/svg">
<path d="M24.2912 63.837C27.3609 63.3853 30.1464 62.0302 32.5055 59.7992C34.7794 57.6776 36.1721 55.5424 37.1243 52.7365C38.176 49.6568 38.4318 47.5763 38.4318 42.0329V37.7488H39.7677C42.9511 37.7488 48.1241 37.1739 50.7959 36.5169C53.5956 35.8326 54.8888 35.3398 56.2958 34.4228C62.9753 30.0975 65.3912 23.774 63.2311 16.328C62.9184 15.2467 62.7905 15.1509 62.5915 15.8627C62.2505 17.204 61.2414 19.7088 60.4882 21.146C58.0722 25.7586 54.7041 28.7151 50.0995 30.2481C47.2998 31.1788 45.3102 31.48 40.464 31.6579L38.176 31.7537L38.0765 30.9872C38.0196 30.5629 38.0054 28.5098 38.0481 26.4293C38.1049 23.2265 38.1618 22.4189 38.4176 21.3239C39.4692 16.7523 41.6862 13.9327 45.1681 12.7282C45.9782 12.4545 46.5324 12.3724 47.9251 12.3176C48.8915 12.2902 49.6305 12.2081 49.5595 12.1397C49.2752 11.8659 47.2856 11.5922 45.026 11.5101C41.672 11.4006 40.0235 11.6469 37.2948 12.6598C35.5184 13.3168 34.481 13.9875 34.0404 14.7677C33.543 15.6573 32.804 17.7105 32.605 18.7233C32.5197 19.2161 32.3492 19.9826 32.2355 20.4342C31.9371 21.7209 31.7381 25.8955 31.8376 29.0026L31.9371 31.8222L29.4642 31.9043C17.9102 32.3423 10.5486 35.5041 7.79152 41.2254C6.6688 43.5796 6.42721 44.7841 6.42721 48.0828C6.42721 49.9443 6.48405 51.0256 6.65459 51.8879C7.00988 53.6946 7.74889 55.3782 8.94266 57.1165C9.65324 58.143 10.9323 59.4981 11.0602 59.3612C11.0886 59.3338 10.9891 58.8411 10.8328 58.2799C10.4775 56.9796 10.307 52.4901 10.5628 50.8887C10.7617 49.6431 11.2023 48.206 11.6571 47.2205C11.8418 46.8235 11.9982 46.4403 11.9982 46.3718C11.9982 46.0297 13.8315 43.6891 14.8405 42.7721C17.2565 40.541 20.2551 39.1723 24.2912 38.4468C25.684 38.2005 31.9797 37.7762 32.1218 37.9267C32.2924 38.091 32.4913 42.074 32.4203 43.8397C32.3208 46.1529 31.7807 49.4652 31.326 50.6149C30.587 52.4217 29.8622 53.5304 28.6258 54.7212C26.7214 56.5553 24.8455 57.3628 22.4437 57.3765C20.8236 57.3765 19.9282 57.1712 18.3223 56.4321C16.9154 55.7751 15.3521 54.5159 14.6415 53.4756C14.4141 53.1471 14.1157 52.7091 13.9736 52.5175C13.5614 51.9289 12.993 50.1633 12.8793 49.0956L12.7656 48.0828L12.4671 48.6303C12.3108 48.9314 11.9555 49.7663 11.6997 50.4781C11.2307 51.751 11.2165 51.8194 11.2307 53.9684C11.2307 56.1446 11.2307 56.172 11.7566 57.4997C12.794 60.2372 14.6842 62.2629 16.9438 63.0705C19.3598 63.9465 21.8184 64.2065 24.2912 63.837ZM4.466 51.1077C3.88332 46.3992 5.04868 41.8276 7.90521 37.6393C9.838 34.806 14.1725 31.8632 18.5355 30.426C20.0277 29.9196 23.7227 28.9067 26.6646 28.1676L28.4694 27.7159L28.6258 27.0179C29.8337 21.4745 30.7859 17.9158 31.4681 16.4649C31.5391 16.3143 31.7239 15.89 31.8802 15.5068C32.8466 13.1115 35.1205 10.1003 37.238 8.4304C39.7961 6.41835 43.349 4.83062 46.5466 4.28312C48.2804 3.982 50.938 3.88619 52.416 4.06412C53.1124 4.14625 53.7235 4.18731 53.7519 4.14625C53.8372 4.07781 52.5723 2.95544 51.8191 2.43532C50.1706 1.29927 47.7972 0.395902 45.6939 0.0947793C43.3064 -0.233718 39.7961 0.313778 37.3659 1.39508C34.9073 2.49007 32.0365 4.68005 30.2601 6.81529C28.2136 9.27902 26.5082 12.6872 25.6271 16.0543C25.3713 16.9987 23.9359 23.1033 23.9359 23.1991C23.9359 23.3633 22.3158 23.9245 19.8572 24.6089C15.3805 25.8271 12.524 26.9768 9.02793 28.9615C7.43623 29.8512 6.49826 30.5629 4.92077 32.0548C2.91693 33.93 1.14048 36.6127 0.557804 38.6385C0.429901 39.0902 0.245151 39.7061 0.159881 40.0072C-0.0532936 40.719 -0.0532936 44.0861 0.159881 44.7978C0.245151 45.0989 0.429901 45.7422 0.557804 46.235C0.842037 47.3163 1.95054 49.5884 2.68955 50.6149C3.28644 51.4362 4.48022 52.6954 4.5797 52.5996C4.60812 52.5722 4.56548 51.9016 4.466 51.1077ZM62.1226 14.1107C61.9236 13.002 59.8487 10.5793 57.7027 8.9779C54.6899 6.73316 51.6912 5.70661 48.1667 5.70661C45.6655 5.70661 43.8606 6.11723 41.6862 7.17116C40.464 7.74603 38.5313 9.06002 37.8775 9.74439C37.4796 10.1413 37.5222 10.155 38.5881 9.9497C40.6346 9.56645 42.1268 9.4022 44.4007 9.32008C49.7158 9.14214 53.1977 9.81283 57.3475 11.8112C58.7828 12.5092 61.7388 14.316 61.7388 14.5076C61.7388 14.5624 61.8383 14.6171 61.9662 14.6171C62.1652 14.6171 62.1794 14.5213 62.1226 14.1107Z" fill="white"/>
<path d="M90.9025 21.56C90.7558 22.3867 90.4092 23.08 89.8625 23.64C89.3292 24.1867 88.6892 24.56 87.9425 24.76C88.6225 24.92 89.1492 25.2467 89.5225 25.74C89.9092 26.2333 90.1025 26.82 90.1025 27.5C90.1025 27.7133 90.0825 27.9333 90.0425 28.16C89.8425 29.36 89.2692 30.3 88.3225 30.98C87.3758 31.66 86.1492 32 84.6425 32H77.6625L80.1625 17.9H86.9225C88.2025 17.9 89.1958 18.16 89.9025 18.68C90.6092 19.1867 90.9625 19.9133 90.9625 20.86C90.9625 21.0867 90.9425 21.32 90.9025 21.56ZM86.7625 22.28C86.7758 22.2133 86.7825 22.1133 86.7825 21.98C86.7825 21.34 86.3625 21.02 85.5225 21.02H83.5425L83.1025 23.52H85.0825C86.0558 23.52 86.6158 23.1067 86.7625 22.28ZM86.1425 27.6C86.1558 27.5333 86.1625 27.44 86.1625 27.32C86.1625 26.9867 86.0492 26.7333 85.8225 26.56C85.6092 26.3733 85.2892 26.28 84.8625 26.28H82.6025L82.1625 28.86H84.4425C85.4158 28.86 85.9825 28.44 86.1425 27.6ZM100.42 29.7H95.4205L94.2605 32H90.1405L97.7605 17.9H102.28L104.92 32H100.78L100.42 29.7ZM99.9605 26.72L99.2605 22.14L96.9405 26.72H99.9605ZM119.298 17.9L118.738 21.02H114.998L113.058 32H109.118L111.058 21.02H107.338L107.898 17.9H119.298ZM131.368 17.9L130.808 21.02H127.068L125.128 32H121.188L123.128 21.02H119.408L119.968 17.9H131.368ZM134.799 29.02H139.179L138.639 32H130.319L132.819 17.9H136.739L134.799 29.02ZM146.023 21L145.623 23.34H150.123L149.583 26.32H145.083L144.623 28.88H149.723L149.183 32H140.143L142.643 17.9H151.663L151.123 21H146.023ZM71.1723 37.9L68.6923 52H64.7523L67.2523 37.9H71.1723ZM83.9847 52H80.0447L76.2447 44.12L74.8447 52H70.9047L73.4047 37.9H77.3247L81.1447 45.88L82.5447 37.9H86.4647L83.9847 52ZM98.2577 37.9L97.7177 41.02H92.0777L91.6377 43.5H95.7777L95.2577 46.48H91.1177L90.1377 52H86.1977L88.6977 37.9H98.2577ZM103.829 37.9L101.349 52H97.4086L99.9086 37.9H103.829ZM116.641 52H112.701L108.901 44.12L107.501 52H103.561L106.061 37.9H109.981L113.801 45.88L115.201 37.9H119.121L116.641 52ZM125.274 37.9L122.794 52H118.854L121.354 37.9H125.274ZM138.126 37.9L137.566 41.02H133.826L131.886 52H127.946L129.886 41.02H126.166L126.726 37.9H138.126ZM152.397 37.9L145.737 47.52L144.937 52H141.017L141.797 47.52L138.537 37.9H143.017L144.537 43.36L147.977 37.9H152.397Z" fill="white"/>
</svg>