<svg width="146" height="94" viewBox="0 0 146 94" fill="none" xmlns="http://www.w3.org/2000/svg">
<g clip-path="url(#clip0_1529_1635)">
<path opacity="0.58" d="M82.1172 59.2973L84.1963 61.3896L86.2754 59.2973L84.1963 57.205L82.1172 59.2973Z" fill="white"/>
<path opacity="0.58" d="M93.8674 46.2636L95.2949 47.7002L96.7225 46.2636L95.2949 44.827L93.8674 46.2636Z" fill="white"/>
<path opacity="0.24" d="M63.503 76.4586L64.7256 77.689L65.9481 76.4586L64.7256 75.2283L63.503 76.4586Z" fill="white"/>
<path opacity="0.88" d="M52.8702 53.9528L54.0928 55.1831L55.3153 53.9528L54.0928 52.7224L52.8702 53.9528Z" fill="white"/>
<path opacity="0.24" d="M122.429 87.6823L123.651 88.9126L124.874 87.6823L123.651 86.4519L122.429 87.6823Z" fill="white"/>
<path d="M-0.00102301 57.3282L2.97119 60.3193L5.9434 57.3282L2.97118 54.3371L-0.00102301 57.3282Z" fill="white"/>
<path opacity="0.68" d="M73.34 31.5692L75.6094 33.853L77.8788 31.5692L75.6094 29.2853L73.34 31.5692Z" fill="white"/>
<path opacity="0.68" d="M141.462 75.8504L143.731 78.1343L146.001 75.8504L143.731 73.5666L141.462 75.8504Z" fill="white"/>
<path opacity="0.69" d="M88.3607 4.81023L93.1484 9.62842L97.9362 4.81023L93.1484 -0.00796098L88.3607 4.81023Z" fill="white"/>
<path opacity="0.54" d="M14.0541 74.2856L15.8037 76.0464L17.5534 74.2856L15.8037 72.5248L14.0541 74.2856Z" fill="white"/>
<path opacity="0.88" d="M107.004 72.0693L107.59 72.6587L108.176 72.0693L107.59 71.4799L107.004 72.0693Z" fill="white"/>
<path opacity="0.88" d="M27.6712 93.4077L28.2568 93.9971L28.8425 93.4077L28.2568 92.8183L27.6712 93.4077Z" fill="white"/>
<ellipse cx="76.1286" cy="46.9998" rx="30.2429" ry="30.2889" fill="url(#paint0_radial_1529_1635)" fill-opacity="0.5"/>
<path d="M61.1595 93.7707C65.4763 93.1356 69.3934 91.23 72.7109 88.0926C75.9085 85.1092 77.8671 82.1065 79.2061 78.1607C80.685 73.8299 81.0447 70.9042 81.0447 63.1088V57.0842H82.9233C87.3999 57.0842 94.6745 56.2758 98.4317 55.3519C102.369 54.3895 104.187 53.6966 106.166 52.407C115.559 46.3247 118.956 37.4321 115.919 26.9613C115.479 25.4407 115.299 25.306 115.019 26.3069C114.54 28.1932 113.121 31.7155 112.062 33.7365C108.664 40.2231 103.928 44.3806 97.4525 46.5364C93.5154 47.8453 90.7175 48.2687 83.9025 48.5189L80.685 48.6537L80.5451 47.5758C80.4651 46.9791 80.4451 44.0919 80.5051 41.1662C80.585 36.6622 80.665 35.5266 81.0247 33.9868C82.5036 27.558 85.6213 23.5929 90.5176 21.8991C91.6568 21.5141 92.4362 21.3986 94.3947 21.3217C95.7537 21.2832 96.7929 21.1677 96.693 21.0714C96.2933 20.6865 93.4954 20.3015 90.3178 20.186C85.6013 20.032 83.283 20.3785 79.4459 21.8029C76.9477 22.7268 75.4888 23.6699 74.8693 24.767C74.1698 26.0181 73.1306 28.9053 72.8508 30.3297C72.7309 31.0226 72.4911 32.1005 72.3312 32.7357C71.9115 34.545 71.6317 40.4156 71.7716 44.7848L71.9115 48.7499L68.4341 48.8654C52.1862 49.4813 41.8339 53.9276 37.9568 61.9732C36.378 65.2838 36.0383 66.9777 36.0383 71.6164C36.0383 74.2341 36.1182 75.7547 36.358 76.9673C36.8576 79.508 37.8969 81.8755 39.5756 84.32C40.5749 85.7636 42.3735 87.6692 42.5534 87.4767C42.5934 87.4382 42.4535 86.7452 42.2336 85.9561C41.734 84.1275 41.4942 77.8142 41.8539 75.5622C42.1337 73.8107 42.7532 71.7896 43.3928 70.4038C43.6526 69.8456 43.8724 69.3067 43.8724 69.2104C43.8724 68.7292 46.4505 65.4378 47.8694 64.1482C51.2669 61.0108 55.4838 59.086 61.1595 58.0659C63.1181 57.7194 71.9715 57.1227 72.1713 57.3345C72.4111 57.5654 72.6909 63.1666 72.591 65.6496C72.4511 68.9024 71.6917 73.5604 71.0521 75.1773C70.0129 77.718 68.9937 79.2771 67.255 80.9516C64.577 83.5308 61.9389 84.6665 58.5615 84.6857C56.2832 84.6857 55.0241 84.397 52.7658 83.3576C50.7873 82.4337 48.5889 80.6629 47.5896 79.2001C47.2699 78.7381 46.8502 78.1222 46.6503 77.8527C46.0708 77.0251 45.2714 74.5421 45.1115 73.0407L44.9516 71.6164L44.5319 72.3863C44.3121 72.8098 43.8125 73.9839 43.4527 74.9848C42.7932 76.7748 42.7732 76.8711 42.7932 79.893C42.7932 82.9534 42.7932 82.9919 43.5327 84.8589C44.9916 88.7085 47.6496 91.5572 50.8272 92.6928C54.2247 93.9247 57.6821 94.2904 61.1595 93.7707ZM33.2803 75.8702C32.4609 69.2489 34.0997 62.8201 38.1167 56.9303C40.8347 52.9459 46.9301 48.8076 53.0656 46.7866C55.164 46.0744 60.3601 44.6501 64.497 43.6107L67.0351 42.9755L67.255 41.9939C68.9537 34.1985 70.2927 29.194 71.252 27.1538C71.3519 26.942 71.6117 26.3454 71.8316 25.8064C73.1905 22.438 76.3882 18.2035 79.3659 15.8553C82.9633 13.0258 87.9595 10.7931 92.4562 10.0231C94.8944 9.59968 98.6316 9.46495 100.71 9.71517C101.689 9.83066 102.549 9.8884 102.589 9.83066C102.709 9.73442 100.93 8.15609 99.8706 7.42467C97.5524 5.8271 94.2149 4.55674 91.2571 4.13328C87.8996 3.67133 82.9633 4.44125 79.5458 5.96183C76.0884 7.50166 72.0514 10.5813 69.5533 13.584C66.6754 17.0486 64.2772 21.8413 63.0381 26.5763C62.6784 27.9044 60.6599 36.489 60.6599 36.6237C60.6599 36.8547 58.3816 37.6439 54.9242 38.6063C48.6289 40.3193 44.6119 41.9361 39.6955 44.7271C37.4572 45.9782 36.1382 46.9791 33.9198 49.0771C31.1019 51.7141 28.6038 55.4867 27.7844 58.3354C27.6045 58.9705 27.3447 59.8367 27.2248 60.2601C26.9251 61.261 26.9251 65.996 27.2248 66.9969C27.3447 67.4204 27.6045 68.325 27.7844 69.0179C28.1841 70.5385 29.743 73.7337 30.7822 75.1773C31.6216 76.3321 33.3003 78.1029 33.4402 77.9682C33.4802 77.9297 33.4202 76.9866 33.2803 75.8702ZM114.36 23.8431C114.08 22.284 111.162 18.8772 108.144 16.6252C103.908 13.4685 99.6908 12.0249 94.7345 12.0249C91.2171 12.0249 88.679 12.6024 85.6213 14.0844C83.9026 14.8929 81.1846 16.7407 80.2653 17.703C79.7057 18.2612 79.7656 18.2805 81.2645 17.9918C84.1424 17.4528 86.2408 17.2219 89.4384 17.1064C96.9128 16.8561 101.809 17.7993 107.645 20.6095C109.663 21.5911 113.82 24.1318 113.82 24.4013C113.82 24.4783 113.96 24.5553 114.14 24.5553C114.42 24.5553 114.44 24.4206 114.36 23.8431Z" fill="white"/>
</g>
<defs>
<radialGradient id="paint0_radial_1529_1635" cx="0" cy="0" r="1" gradientUnits="userSpaceOnUse" gradientTransform="translate(76.1286 46.9998) rotate(90) scale(30.2889 30.2429)">
<stop stop-color="white" stop-opacity="0.67"/>
<stop offset="1" stop-color="white" stop-opacity="0"/>
</radialGradient>
<clipPath id="clip0_1529_1635">
<rect width="146" height="94" fill="white" transform="translate(146 94) rotate(180)"/>
</clipPath>
</defs>
</svg>