<svg width="183" height="35" viewBox="0 0 183 35" fill="none" xmlns="http://www.w3.org/2000/svg">
<path d="M55.5002 19.2656L53.867 20.9712V25.1164H49.8862V9.39905H53.867V16.3293L55.2507 14.3323L58.8119 9.39905H63.7341L58.1541 16.351L63.7341 25.1164H59.0161L55.5002 19.2656Z" fill="white"/>
<path d="M72.2222 16.7285L70.9633 16.6422C69.7612 16.6422 68.9899 17.002 68.6497 17.7217V25.1162H64.8276V13.4361H68.4115L68.5362 14.9366C69.179 13.7924 70.0749 13.2203 71.2242 13.2203C71.6325 13.2203 71.9878 13.2634 72.2903 13.3498L72.2222 16.7285Z" fill="white"/>
<path d="M78.9422 20.0212L80.9837 13.4362H85.0779L80.0764 27.0701L79.8608 27.5667C79.1501 29.078 77.8949 29.8336 76.0955 29.8336C75.5964 29.8336 75.071 29.7617 74.519 29.6178V27.0162H75.0181C75.5549 27.0162 75.9632 26.9406 76.2429 26.7895C76.5302 26.6455 76.742 26.3829 76.878 26.0015L77.1842 25.2242L72.9199 13.4362H77.0028L78.9422 20.0212Z" fill="white"/>
<path d="M97.707 19.3623C97.707 21.1759 97.276 22.626 96.414 23.7127C95.5596 24.7922 94.4028 25.3319 92.9436 25.3319C91.817 25.3319 90.8907 24.9397 90.1649 24.1552V29.6067H86.3428V13.4359H89.9154L90.0288 14.5155C90.7622 13.6519 91.7262 13.2201 92.9209 13.2201C94.433 13.2201 95.6088 13.7526 96.448 14.8177C97.2873 15.8756 97.707 17.3329 97.707 19.1896V19.3623ZM93.8849 19.1356C93.8849 17.063 93.2498 16.0267 91.9795 16.0267C91.0723 16.0267 90.4674 16.3362 90.1649 16.955V21.5537C90.4976 22.2014 91.11 22.5252 92.0022 22.5252C93.2195 22.5252 93.847 21.5249 93.8849 19.5243V19.1356Z" fill="white"/>
<path d="M104.085 10.5325V13.4363H106.104V15.9624H104.085V21.3058C104.085 21.7448 104.169 22.0506 104.335 22.2234C104.501 22.3961 104.83 22.4824 105.322 22.4824C105.7 22.4824 106.017 22.4608 106.274 22.4177V25.0192C105.586 25.2279 104.868 25.3323 104.12 25.3323C102.804 25.3323 101.832 25.0372 101.205 24.4471C100.577 23.8569 100.263 22.9611 100.263 21.7591V15.9624H98.6982V13.4363H100.263V10.5325H104.085Z" fill="white"/>
<path d="M107.028 19.168C107.028 18.0022 107.266 16.9659 107.743 16.0592C108.219 15.1452 108.903 14.4435 109.796 13.9541C110.688 13.4647 111.735 13.2201 112.937 13.2201C114.775 13.2201 116.223 13.7634 117.281 14.8501C118.339 15.9295 118.869 17.4012 118.869 19.2652V19.3947C118.869 21.2154 118.336 22.662 117.27 23.7343C116.211 24.7993 114.775 25.3319 112.96 25.3319C111.213 25.3319 109.811 24.8354 108.752 23.8422C107.694 22.8419 107.123 21.4889 107.04 19.7833L107.028 19.168ZM110.85 19.3947C110.85 20.4742 111.028 21.2658 111.384 21.7696C111.739 22.2734 112.264 22.5252 112.96 22.5252C114.321 22.5252 115.016 21.5285 115.047 19.5351V19.168C115.047 17.0738 114.343 16.0267 112.937 16.0267C111.66 16.0267 110.967 16.9298 110.862 18.7362L110.85 19.3947Z" fill="white"/>
<path d="M127.211 21.8343C127.211 21.5249 127.04 21.2766 126.7 21.0895C126.361 20.9024 125.714 20.7081 124.761 20.5066C123.809 20.3051 123.022 20.0424 122.402 19.7185C121.782 19.3875 121.309 18.9881 120.985 18.5203C120.659 18.0526 120.497 17.5164 120.497 16.9119C120.497 15.8396 120.962 14.958 121.891 14.2672C122.821 13.5691 124.039 13.2201 125.544 13.2201C127.162 13.2201 128.462 13.5691 129.445 14.2672C130.428 14.9653 130.919 15.8827 130.919 17.0198H127.086C127.086 16.0843 126.569 15.6165 125.532 15.6165C125.132 15.6165 124.795 15.7245 124.523 15.9404C124.251 16.149 124.114 16.4118 124.114 16.7283C124.114 17.0522 124.28 17.3149 124.614 17.5164C124.947 17.7179 125.476 17.8835 126.201 18.013C126.935 18.1425 127.577 18.2972 128.13 18.4772C129.974 19.0817 130.897 20.1647 130.897 21.7264C130.897 22.7915 130.398 23.6588 129.399 24.3279C128.41 24.9972 127.124 25.3319 125.544 25.3319C124.493 25.3319 123.555 25.1519 122.731 24.7922C121.907 24.4324 121.264 23.943 120.803 23.324C120.342 22.7051 120.111 22.0538 120.111 21.3702H123.684C123.699 21.9099 123.887 22.3057 124.251 22.5576C124.614 22.8023 125.079 22.9246 125.645 22.9246C126.168 22.9246 126.557 22.8239 126.814 22.6224C127.079 22.4209 127.211 22.1582 127.211 21.8343Z" fill="white"/>
<path d="M137.435 22.3096H143.025V25.1163H132.603V23.0869L138.047 16.2429H132.841V13.4362H142.901V15.4009L137.435 22.3096Z" fill="white"/>
<path d="M150.868 25.3321C148.986 25.3321 147.462 24.7995 146.298 23.7345C145.133 22.6622 144.551 21.2697 144.551 19.5568V19.2546C144.551 18.06 144.781 17.0057 145.243 16.0917C145.711 15.1777 146.392 14.4725 147.284 13.9759C148.176 13.4721 149.235 13.2203 150.46 13.2203C152.184 13.2203 153.544 13.7312 154.543 14.7531C155.54 15.7678 156.04 17.1856 156.04 19.0063V20.4205H148.441C148.577 21.0753 148.876 21.5898 149.337 21.9641C149.798 22.3384 150.396 22.5254 151.129 22.5254C152.339 22.5254 153.284 22.1224 153.964 21.3164L155.711 23.281C155.235 23.9071 154.557 24.4074 153.681 24.7816C152.811 25.1485 151.874 25.3321 150.868 25.3321ZM150.437 16.0269C149.318 16.0269 148.652 16.7322 148.441 18.1427H152.297V17.862C152.312 17.2791 152.157 16.8293 151.832 16.5127C151.507 16.1889 151.042 16.0269 150.437 16.0269Z" fill="white"/>
<path d="M161.331 13.4359L161.456 14.8069C162.303 13.749 163.47 13.2201 164.959 13.2201C166.238 13.2201 167.19 13.5835 167.818 14.3103C168.453 15.0372 168.782 16.131 168.804 17.592V25.116H164.972V17.7431C164.972 17.1529 164.847 16.7212 164.597 16.4477C164.347 16.1671 163.893 16.0267 163.236 16.0267C162.487 16.0267 161.932 16.3073 161.569 16.8687V25.116H157.747V13.4359H161.331Z" fill="white"/>
<path d="M177.1 25.3321C175.218 25.3321 173.695 24.7995 172.53 23.7345C171.366 22.6622 170.783 21.2697 170.783 19.5568V19.2546C170.783 18.06 171.013 17.0057 171.475 16.0917C171.943 15.1777 172.624 14.4725 173.516 13.9759C174.409 13.4721 175.467 13.2203 176.693 13.2203C178.416 13.2203 179.777 13.7312 180.775 14.7531C181.773 15.7678 182.272 17.1856 182.272 19.0063V20.4205H174.673C174.81 21.0753 175.108 21.5898 175.569 21.9641C176.031 22.3384 176.628 22.5254 177.361 22.5254C178.571 22.5254 179.517 22.1224 180.196 21.3164L181.943 23.281C181.467 23.9071 180.79 24.4074 179.913 24.7816C179.044 25.1485 178.106 25.3321 177.1 25.3321ZM176.669 16.0269C175.55 16.0269 174.885 16.7322 174.673 18.1427H178.529V17.862C178.545 17.2791 178.39 16.8293 178.064 16.5127C177.74 16.1889 177.274 16.0269 176.669 16.0269Z" fill="white"/>
<path d="M18.8629 34.5433C28.8848 34.5433 37.0091 26.8105 37.0091 17.2717C37.0091 7.73278 28.8848 0 18.8629 0C8.8411 0 0.716797 7.73278 0.716797 17.2717C0.716797 26.8105 8.8411 34.5433 18.8629 34.5433Z" fill="#EB9A29"/>
<path d="M6.82062 13.2673H0.964355V14.7589H6.82062V13.2673Z" fill="white"/>
<path d="M6.82062 19.7838H0.964355V21.2755H6.82062V19.7838Z" fill="white"/>
<path d="M9.95525 16.5651H0.552246V17.9782H9.95525V16.5651Z" fill="white"/>
<path d="M30.9023 13.2632H36.7676V14.7208H30.9023V13.2632Z" fill="white"/>
<path d="M30.9023 19.8228H36.7676V21.2803H30.9023V19.8228Z" fill="white"/>
<path d="M27.7366 16.543H37.1396V18.0006H27.7366V16.543Z" fill="white"/>
<path d="M18.443 19.1662L16.9288 20.7476V24.591H13.2378V10.0181H16.9288V16.4437L18.2117 14.5921L21.5136 10.0181H26.0774L20.9037 16.4637L26.0774 24.591H21.7029L18.443 19.1662Z" fill="white"/>
</svg>