<svg width="127" height="86" viewBox="0 0 127 86" fill="none" xmlns="http://www.w3.org/2000/svg">
<path opacity="0.58" d="M70.9298 55.4042L72.7256 57.207L74.5214 55.4042L72.7256 53.6013L70.9298 55.4042Z" fill="#F8CCFF"/>
<path opacity="0.58" d="M81.0795 44.1733L82.3125 45.4111L83.5455 44.1733L82.3125 42.9354L81.0795 44.1733Z" fill="#F8CCFF"/>
<path opacity="0.24" d="M54.8512 70.1913L55.9072 71.2515L56.9632 70.1913L55.9072 69.1312L54.8512 70.1913Z" fill="#F8CCFF"/>
<path opacity="0.88" d="M45.6677 50.7988L46.7236 51.8589L47.7796 50.7988L46.7236 49.7386L45.6677 50.7988Z" fill="#F8CCFF"/>
<path opacity="0.24" d="M105.749 79.8617L106.805 80.9219L107.861 79.8617L106.805 78.8016L105.749 79.8617Z" fill="#F8CCFF"/>
<path d="M0.000132727 53.7074L2.56738 56.2847L5.13462 53.7074L2.56737 51.13L0.000132727 53.7074Z" fill="#F8CCFF"/>
<path opacity="0.68" d="M63.3489 31.5116L65.3091 33.4795L67.2693 31.5116L65.3091 29.5437L63.3489 31.5116Z" fill="#F8CCFF"/>
<path opacity="0.68" d="M122.188 69.6669L124.148 71.6348L126.109 69.6669L124.148 67.699L122.188 69.6669Z" fill="#F8CCFF"/>
<path opacity="0.69" d="M86.8382 6.15159L90.9736 10.3032L95.109 6.15159L90.9736 1.99996L86.8382 6.15159Z" fill="#F8CCFF"/>
<path opacity="0.54" d="M12.1401 68.3188L13.6514 69.8359L15.1626 68.3188L13.6514 66.8016L12.1401 68.3188Z" fill="#F8CCFF"/>
<path opacity="0.88" d="M92.4258 66.4091L92.9316 66.917L93.4375 66.4091L92.9316 65.9013L92.4258 66.4091Z" fill="#F8CCFF"/>
<path opacity="0.88" d="M23.9014 84.7954L24.4072 85.3032L24.9131 84.7954L24.4072 84.2875L23.9014 84.7954Z" fill="#F8CCFF"/>
<path d="M83.806 41.1015C84.0613 41.7435 84.212 42.5752 84.212 43.6536C84.212 45.3171 83.4739 46.7244 82.3021 47.553C82.7265 48.293 82.9295 49.1374 82.9295 49.9818C82.9295 51.7591 81.9669 53.274 80.5153 54.0551C80.7613 54.6497 80.9058 55.3834 80.912 56.2847C80.9181 57.7047 80.5153 58.8463 79.7095 59.6781C78.8606 60.5541 77.6581 61 76.1388 61H58.8392C56.5203 61 54.9241 59.7223 53.7554 58.7862C53.0819 58.2486 52.4453 57.7363 52.0024 57.7363H45.5377C44.6889 57.7363 44 57.0279 44 56.155C44 55.2822 44.6889 54.5738 45.5377 54.5738H52.0024C53.5002 54.5738 54.6381 55.4846 55.6438 56.2879C56.6372 57.0817 57.5752 57.8343 58.8392 57.8343H76.1388C76.7908 57.8343 77.286 57.6983 77.529 57.4453C77.7381 57.2303 77.8427 56.8445 77.8396 56.3005C77.8304 54.9185 77.5566 54.6212 74.6811 54.6212H74.3551C73.5062 54.6212 72.8173 53.9128 72.8173 53.04C72.8173 52.1671 73.5062 51.4587 74.3551 51.4587H78.224C79.1682 51.4587 79.854 50.8357 79.854 49.9787C79.854 48.5555 78.4731 48.3436 77.6489 48.3436H75.3423C74.4935 48.3436 73.8045 47.6352 73.8045 46.7624C73.8045 45.8895 74.4935 45.1811 75.3423 45.1811H79.7618C80.7797 45.1811 81.1396 44.3905 81.1396 43.6505C81.1396 42.0945 81.1396 42.0945 79.7894 42.0534C79.6326 42.0502 79.4696 42.0376 79.3097 42.0313H76.0004C75.1516 42.0313 74.4627 41.3229 74.4627 40.45C74.4627 39.5772 75.1516 38.8688 76.0004 38.8688H79.0206C79.0421 38.8688 79.0605 38.8561 79.0821 38.8561H81.0227C81.93 38.8561 82.6712 38.1382 82.6712 37.259C82.6712 36.3799 81.9331 35.662 81.0227 35.662H67.3276C66.8693 35.662 66.4357 35.4532 66.1435 35.0896C65.8513 34.7259 65.7314 34.2483 65.8175 33.7866L67.4168 25.1403C67.6074 24.2769 68.1487 21.8292 67.5182 20.7444C67.3552 20.4629 66.9585 20.1625 66.4726 20.1625C65.8698 20.1625 65.2516 20.659 64.7319 21.554L54.7642 38.1066C54.4843 38.5715 53.9892 38.8561 53.4571 38.8561H45.5562C44.7074 38.8561 44.0185 38.1477 44.0185 37.2749C44.0185 36.402 44.7074 35.6936 45.5562 35.6936H52.6021L62.0992 19.9127C63.5632 17.3827 65.4669 17 66.4664 17C66.4664 17 66.4664 17 66.4695 17C67.9611 17 69.4066 17.8349 70.1539 19.122C71.2734 21.048 70.8859 23.6919 70.4215 25.7823L69.1821 32.4995H81.0196C83.6246 32.4995 85.7436 34.6342 85.7436 37.259C85.7467 38.834 84.9809 40.235 83.806 41.1015V41.1015Z" fill="white"/>
<g filter="url(#filter0_b_1529_1721)">
<circle cx="63.5" cy="40.5" r="40.5" fill="url(#paint0_radial_1529_1721)" fill-opacity="0.3"/>
<circle cx="63.5" cy="40.5" r="39" stroke="url(#paint1_linear_1529_1721)" stroke-width="3"/>
</g>
<defs>
<filter id="filter0_b_1529_1721" x="21" y="-2" width="85" height="85" filterUnits="userSpaceOnUse" color-interpolation-filters="sRGB">
<feFlood flood-opacity="0" result="BackgroundImageFix"/>
<feGaussianBlur in="BackgroundImageFix" stdDeviation="1"/>
<feComposite in2="SourceAlpha" operator="in" result="effect1_backgroundBlur_1529_1721"/>
<feBlend mode="normal" in="SourceGraphic" in2="effect1_backgroundBlur_1529_1721" result="shape"/>
</filter>
<radialGradient id="paint0_radial_1529_1721" cx="0" cy="0" r="1" gradientUnits="userSpaceOnUse" gradientTransform="translate(63.5 40.5) rotate(90) scale(40.5)">
<stop stop-color="white" stop-opacity="0.7"/>
<stop offset="1" stop-color="#40005F"/>
</radialGradient>
<linearGradient id="paint1_linear_1529_1721" x1="63.5" y1="0" x2="63.5" y2="81" gradientUnits="userSpaceOnUse">
<stop stop-color="#335DD8" stop-opacity="0.7"/>
<stop offset="0.536458" stop-color="#D36BF4"/>
<stop offset="1" stop-color="#64D7E6" stop-opacity="0.67"/>
</linearGradient>
</defs>
</svg>