<svg width="127" height="86" viewBox="0 0 127 86" fill="none" xmlns="http://www.w3.org/2000/svg">
<path opacity="0.58" d="M55.1791 31.899L53.3833 30.0962L51.5875 31.899L53.3833 33.7019L55.1791 31.899Z" fill="#F8CCFF"/>
<path opacity="0.58" d="M45.0294 43.13L43.7964 41.8921L42.5634 43.13L43.7964 44.3678L45.0294 43.13Z" fill="#F8CCFF"/>
<path opacity="0.24" d="M71.2576 17.1119L70.2017 16.0518L69.1457 17.1119L70.2017 18.172L71.2576 17.1119Z" fill="#F8CCFF"/>
<path opacity="0.88" d="M80.4412 36.5045L79.3853 35.4443L78.3293 36.5045L79.3852 37.5646L80.4412 36.5045Z" fill="#F8CCFF"/>
<path opacity="0.24" d="M20.3602 7.44147L19.3042 6.38135L18.2482 7.44147L19.3042 8.5016L20.3602 7.44147Z" fill="#F8CCFF"/>
<path d="M126.109 33.5959L123.542 31.0186L120.974 33.5959L123.542 36.1732L126.109 33.5959Z" fill="#F8CCFF"/>
<path opacity="0.68" d="M62.76 55.7916L60.7998 53.8237L58.8396 55.7916L60.7998 57.7595L62.76 55.7916Z" fill="#F8CCFF"/>
<path opacity="0.68" d="M3.92066 17.6364L1.96045 15.6685L0.000238701 17.6364L1.96045 19.6043L3.92066 17.6364Z" fill="#F8CCFF"/>
<path opacity="0.69" d="M39.2707 81.1516L35.1353 77L30.9998 81.1516L35.1353 85.3033L39.2707 81.1516Z" fill="#F8CCFF"/>
<path opacity="0.54" d="M113.969 18.9845L112.458 17.4673L110.946 18.9845L112.458 20.5017L113.969 18.9845Z" fill="#F8CCFF"/>
<path opacity="0.88" d="M33.6831 20.8946L33.1772 20.3867L32.6714 20.8946L33.1772 21.4024L33.6831 20.8946Z" fill="#F8CCFF"/>
<path opacity="0.88" d="M102.208 2.50784L101.702 2L101.196 2.50784L101.702 3.01569L102.208 2.50784Z" fill="#F8CCFF"/>
<path d="M45.1059 29.64C45.1059 27.1013 45.8712 25.0853 47.4019 23.592C48.9326 22.0613 50.8926 21.296 53.2819 21.296C55.6712 21.296 57.6312 22.0613 59.1619 23.592C60.6926 25.0853 61.4579 27.1013 61.4579 29.64C61.4579 32.216 60.6926 34.2693 59.1619 35.8C57.6312 37.2933 55.6712 38.04 53.2819 38.04C50.8926 38.04 48.9326 37.2933 47.4019 35.8C45.8712 34.2693 45.1059 32.216 45.1059 29.64ZM77.8099 21.912L55.1299 61H50.0899L72.7699 21.912H77.8099ZM53.2819 24.432C52.0126 24.432 51.0046 24.88 50.2579 25.776C49.5486 26.6347 49.1939 27.9227 49.1939 29.64C49.1939 31.3573 49.5486 32.664 50.2579 33.56C51.0046 34.456 52.0126 34.904 53.2819 34.904C54.5512 34.904 55.5592 34.456 56.3059 33.56C57.0526 32.6267 57.4259 31.32 57.4259 29.64C57.4259 27.9227 57.0526 26.6347 56.3059 25.776C55.5592 24.88 54.5512 24.432 53.2819 24.432ZM66.5539 53.272C66.5539 50.696 67.3192 48.6613 68.8499 47.168C70.3806 45.6373 72.3406 44.872 74.7299 44.872C77.1192 44.872 79.0606 45.6373 80.5539 47.168C82.0846 48.6613 82.8499 50.696 82.8499 53.272C82.8499 55.8107 82.0846 57.8453 80.5539 59.376C79.0606 60.9067 77.1192 61.672 74.7299 61.672C72.3406 61.672 70.3806 60.9253 68.8499 59.432C67.3192 57.9013 66.5539 55.848 66.5539 53.272ZM74.6739 48.064C73.4046 48.064 72.3966 48.512 71.6499 49.408C70.9032 50.2667 70.5299 51.5547 70.5299 53.272C70.5299 54.952 70.9032 56.24 71.6499 57.136C72.3966 57.9947 73.4046 58.424 74.6739 58.424C75.9432 58.424 76.9512 57.9947 77.6979 57.136C78.4446 56.24 78.8179 54.952 78.8179 53.272C78.8179 51.5547 78.4446 50.2667 77.6979 49.408C76.9512 48.512 75.9432 48.064 74.6739 48.064Z" fill="white"/>
<g filter="url(#filter0_b_1529_1666)">
<circle cx="63.5" cy="40.5" r="40.5" fill="url(#paint0_radial_1529_1666)" fill-opacity="0.3"/>
<circle cx="63.5" cy="40.5" r="39" stroke="url(#paint1_linear_1529_1666)" stroke-width="3"/>
</g>
<defs>
<filter id="filter0_b_1529_1666" x="21" y="-2" width="85" height="85" filterUnits="userSpaceOnUse" color-interpolation-filters="sRGB">
<feFlood flood-opacity="0" result="BackgroundImageFix"/>
<feGaussianBlur in="BackgroundImageFix" stdDeviation="1"/>
<feComposite in2="SourceAlpha" operator="in" result="effect1_backgroundBlur_1529_1666"/>
<feBlend mode="normal" in="SourceGraphic" in2="effect1_backgroundBlur_1529_1666" result="shape"/>
</filter>
<radialGradient id="paint0_radial_1529_1666" cx="0" cy="0" r="1" gradientUnits="userSpaceOnUse" gradientTransform="translate(63.5 40.5) rotate(90) scale(40.5)">
<stop stop-color="white" stop-opacity="0.7"/>
<stop offset="1" stop-color="#40005F"/>
</radialGradient>
<linearGradient id="paint1_linear_1529_1666" x1="63.5" y1="0" x2="63.5" y2="81" gradientUnits="userSpaceOnUse">
<stop stop-color="#335DD8" stop-opacity="0.7"/>
<stop offset="0.536458" stop-color="#D36BF4"/>
<stop offset="1" stop-color="#64D7E6" stop-opacity="0.67"/>
</linearGradient>
</defs>
</svg>